G04*
G04 #@! TF.GenerationSoftware,Altium Limited,Altium Designer,21.2.2 (38)*
G04*
G04 Layer_Physical_Order=1*
G04 Layer_Color=255*
%FSLAX25Y25*%
%MOIN*%
G70*
G04*
G04 #@! TF.SameCoordinates,2C2DF465-67B0-4465-8F2B-43406C1D41F1*
G04*
G04*
G04 #@! TF.FilePolarity,Positive*
G04*
G01*
G75*
%ADD11C,0.00787*%
%ADD13C,0.01000*%
%ADD14C,0.00394*%
%ADD15C,0.00600*%
%ADD16C,0.00500*%
%ADD17C,0.00200*%
%ADD18C,0.00197*%
%ADD34C,0.02500*%
%ADD35C,0.01200*%
%ADD36C,0.01500*%
%ADD37P,0.06061X8X202.5*%
%ADD38P,0.06061X8X292.5*%
%ADD39R,0.04567X0.04567*%
%ADD40C,0.04567*%
%ADD41C,0.05315*%
%ADD42R,0.05315X0.05315*%
%ADD43P,0.05629X8X22.5*%
%ADD44R,0.04461X0.04461*%
%ADD45C,0.04461*%
%ADD46C,0.12205*%
%ADD47C,0.05906*%
%ADD48C,0.14961*%
%ADD49C,0.17717*%
%ADD50C,0.11811*%
%ADD51C,0.05000*%
G36*
X130000Y220000D02*
Y210000D01*
X135500Y204500D01*
X306000D01*
X315000Y195500D01*
Y121173D01*
X304469Y110643D01*
X284771D01*
X284637Y111143D01*
X285109Y111415D01*
X285711Y112017D01*
X286136Y112753D01*
X286356Y113575D01*
Y114425D01*
X286136Y115247D01*
X285711Y115983D01*
X285109Y116585D01*
X284373Y117010D01*
X283551Y117230D01*
X282701D01*
X281879Y117010D01*
X281142Y116585D01*
X280541Y115983D01*
X280116Y115247D01*
X279896Y114425D01*
Y113575D01*
X280116Y112753D01*
X280541Y112017D01*
X281142Y111415D01*
X281615Y111143D01*
X281481Y110643D01*
X266732D01*
X266732Y110643D01*
X266049Y110507D01*
X265471Y110120D01*
X252521Y97171D01*
X252299Y97230D01*
X251449D01*
X250627Y97010D01*
X249891Y96585D01*
X249289Y95983D01*
X248864Y95247D01*
X248644Y94425D01*
Y93575D01*
X248864Y92753D01*
X249289Y92017D01*
X249891Y91415D01*
X250627Y90990D01*
X251449Y90770D01*
X252299D01*
X253121Y90990D01*
X253857Y91415D01*
X254459Y92017D01*
X254884Y92753D01*
X255104Y93575D01*
Y94425D01*
X255045Y94647D01*
X267471Y107074D01*
X280990D01*
X281130Y106625D01*
X281132Y106574D01*
X280541Y105983D01*
X280116Y105247D01*
X279896Y104425D01*
Y103575D01*
X280116Y102753D01*
X280541Y102016D01*
X281142Y101415D01*
X281879Y100990D01*
X282701Y100770D01*
X283551D01*
X284373Y100990D01*
X285109Y101415D01*
X285711Y102016D01*
X286136Y102753D01*
X286356Y103575D01*
Y104425D01*
X286136Y105247D01*
X285711Y105983D01*
X285120Y106574D01*
X285122Y106625D01*
X285262Y107074D01*
X305208D01*
X305891Y107210D01*
X306470Y107597D01*
X314538Y115665D01*
X315000Y115473D01*
Y92500D01*
X303000Y80500D01*
X189000Y80500D01*
X156000Y47500D01*
X146800D01*
Y49993D01*
X150009Y53202D01*
X150363Y53732D01*
X150487Y54356D01*
Y54865D01*
X150767Y54940D01*
X151516Y55373D01*
X152127Y55984D01*
X152560Y56733D01*
X152784Y57568D01*
Y58432D01*
X152560Y59267D01*
X152127Y60016D01*
X151516Y60627D01*
X150767Y61060D01*
X149932Y61283D01*
X149068D01*
X148233Y61060D01*
X147484Y60627D01*
X146873Y60016D01*
X146440Y59267D01*
X146216Y58432D01*
Y57568D01*
X146440Y56733D01*
X146873Y55984D01*
X147224Y55632D01*
Y55032D01*
X144493Y52300D01*
X141100D01*
X139200Y50400D01*
Y47500D01*
X136800D01*
Y50400D01*
X134900Y52300D01*
X131507D01*
X130487Y53320D01*
Y54865D01*
X130767Y54940D01*
X131516Y55373D01*
X132127Y55984D01*
X132560Y56733D01*
X132783Y57568D01*
Y58432D01*
X132560Y59267D01*
X132127Y60016D01*
X131516Y60627D01*
X130767Y61060D01*
X129932Y61283D01*
X129068D01*
X128233Y61060D01*
X127484Y60627D01*
X126873Y60016D01*
X126440Y59267D01*
X126216Y58432D01*
Y57568D01*
X126440Y56733D01*
X126873Y55984D01*
X127224Y55632D01*
Y52644D01*
X127349Y52020D01*
X127702Y51491D01*
X129200Y49993D01*
Y47500D01*
X94500Y47500D01*
X80608Y61392D01*
X80101Y214101D01*
X97000Y231000D01*
X119000D01*
X130000Y220000D01*
D02*
G37*
%LPC*%
G36*
X110000Y224654D02*
Y217000D01*
X117654D01*
X117479Y217876D01*
X116736Y219670D01*
X115657Y221284D01*
X114284Y222657D01*
X112670Y223736D01*
X110875Y224479D01*
X110000Y224654D01*
D02*
G37*
G36*
X106000D02*
X105124Y224479D01*
X103330Y223736D01*
X101716Y222657D01*
X100343Y221284D01*
X99264Y219670D01*
X98521Y217876D01*
X98346Y217000D01*
X106000D01*
Y224654D01*
D02*
G37*
G36*
X117654Y213000D02*
X110000D01*
Y205346D01*
X110875Y205521D01*
X112670Y206264D01*
X114284Y207343D01*
X115657Y208716D01*
X116736Y210330D01*
X117479Y212124D01*
X117654Y213000D01*
D02*
G37*
G36*
X106000D02*
X98346D01*
X98521Y212124D01*
X99264Y210330D01*
X100343Y208716D01*
X101716Y207343D01*
X103330Y206264D01*
X105124Y205521D01*
X106000Y205346D01*
Y213000D01*
D02*
G37*
G36*
X91193Y209569D02*
Y202720D01*
X98041D01*
X97847Y203694D01*
X97208Y205237D01*
X96280Y206626D01*
X95099Y207807D01*
X93710Y208736D01*
X92167Y209375D01*
X91193Y209569D01*
D02*
G37*
G36*
X88193D02*
X87219Y209375D01*
X85676Y208736D01*
X84287Y207807D01*
X83106Y206626D01*
X82178Y205237D01*
X81538Y203694D01*
X81345Y202720D01*
X88193D01*
Y209569D01*
D02*
G37*
G36*
X296520Y199421D02*
X296500D01*
Y195968D01*
X299953D01*
Y195989D01*
X299683Y196994D01*
X299163Y197896D01*
X298427Y198632D01*
X297526Y199152D01*
X296520Y199421D01*
D02*
G37*
G36*
X295500D02*
X295480D01*
X294474Y199152D01*
X293573Y198632D01*
X292837Y197896D01*
X292317Y196994D01*
X292047Y195989D01*
Y195968D01*
X295500D01*
Y199421D01*
D02*
G37*
G36*
X88193Y199721D02*
X81345D01*
X81538Y198747D01*
X82178Y197204D01*
X83106Y195815D01*
X84287Y194633D01*
X85676Y193705D01*
X87219Y193066D01*
X88193Y192872D01*
Y199721D01*
D02*
G37*
G36*
X98041D02*
X91193D01*
Y192872D01*
X92167Y193066D01*
X93710Y193705D01*
X95099Y194633D01*
X96280Y195815D01*
X97208Y197204D01*
X97847Y198747D01*
X98041Y199721D01*
D02*
G37*
G36*
X236020Y199921D02*
X234980D01*
X233974Y199652D01*
X233073Y199132D01*
X232337Y198396D01*
X231817Y197494D01*
X231547Y196489D01*
Y195448D01*
X231817Y194443D01*
X232337Y193542D01*
X233073Y192806D01*
X233974Y192285D01*
X234980Y192016D01*
X236020D01*
X237026Y192285D01*
X237927Y192806D01*
X238663Y193542D01*
X239183Y194443D01*
X239453Y195448D01*
Y196489D01*
X239183Y197494D01*
X238663Y198396D01*
X237927Y199132D01*
X237026Y199652D01*
X236020Y199921D01*
D02*
G37*
G36*
X226020D02*
X224980D01*
X223974Y199652D01*
X223073Y199132D01*
X222337Y198396D01*
X221817Y197494D01*
X221547Y196489D01*
Y195448D01*
X221817Y194443D01*
X222337Y193542D01*
X223073Y192806D01*
X223974Y192285D01*
X224980Y192016D01*
X226020D01*
X227026Y192285D01*
X227927Y192806D01*
X228663Y193542D01*
X229183Y194443D01*
X229453Y195448D01*
Y196489D01*
X229183Y197494D01*
X228663Y198396D01*
X227927Y199132D01*
X227026Y199652D01*
X226020Y199921D01*
D02*
G37*
G36*
X165520Y199831D02*
X164480D01*
X163474Y199561D01*
X162573Y199041D01*
X161837Y198305D01*
X161317Y197404D01*
X161047Y196398D01*
Y195358D01*
X161317Y194352D01*
X161837Y193451D01*
X162573Y192715D01*
X163474Y192195D01*
X164480Y191925D01*
X165520D01*
X166526Y192195D01*
X167427Y192715D01*
X168163Y193451D01*
X168683Y194352D01*
X168953Y195358D01*
Y196398D01*
X168683Y197404D01*
X168163Y198305D01*
X167427Y199041D01*
X166526Y199561D01*
X165520Y199831D01*
D02*
G37*
G36*
X155520D02*
X154480D01*
X153474Y199561D01*
X152573Y199041D01*
X151837Y198305D01*
X151317Y197404D01*
X151047Y196398D01*
Y195358D01*
X151317Y194352D01*
X151837Y193451D01*
X152573Y192715D01*
X153474Y192195D01*
X154480Y191925D01*
X155520D01*
X156526Y192195D01*
X157427Y192715D01*
X158163Y193451D01*
X158683Y194352D01*
X158953Y195358D01*
Y196398D01*
X158683Y197404D01*
X158163Y198305D01*
X157427Y199041D01*
X156526Y199561D01*
X155520Y199831D01*
D02*
G37*
G36*
X306520Y199421D02*
X305480D01*
X304474Y199152D01*
X303573Y198632D01*
X302837Y197896D01*
X302317Y196994D01*
X302047Y195989D01*
Y194948D01*
X302285Y194061D01*
X298847Y190622D01*
X298493Y190093D01*
X298369Y189469D01*
Y129100D01*
X297851Y128801D01*
X297199Y128149D01*
X296739Y127351D01*
X296500Y126461D01*
Y125539D01*
X296739Y124649D01*
X297199Y123851D01*
X297851Y123199D01*
X298649Y122739D01*
X299539Y122500D01*
X300461D01*
X301351Y122739D01*
X302149Y123199D01*
X302801Y123851D01*
X303261Y124649D01*
X303500Y125539D01*
Y126461D01*
X303261Y127351D01*
X302801Y128149D01*
X302149Y128801D01*
X301631Y129100D01*
Y188793D01*
X304592Y191753D01*
X305480Y191516D01*
X306520D01*
X307526Y191785D01*
X308427Y192306D01*
X309163Y193042D01*
X309683Y193943D01*
X309953Y194948D01*
Y195989D01*
X309683Y196994D01*
X309163Y197896D01*
X308427Y198632D01*
X307526Y199152D01*
X306520Y199421D01*
D02*
G37*
G36*
X299953Y194968D02*
X296500D01*
Y191516D01*
X296520D01*
X297526Y191785D01*
X298427Y192306D01*
X299163Y193042D01*
X299683Y193943D01*
X299953Y194948D01*
Y194968D01*
D02*
G37*
G36*
X295500D02*
X292047D01*
Y194948D01*
X292317Y193943D01*
X292837Y193042D01*
X293573Y192306D01*
X294474Y191785D01*
X295480Y191516D01*
X295500D01*
Y194968D01*
D02*
G37*
G36*
X120180Y181405D02*
X118820D01*
X117486Y181140D01*
X116229Y180620D01*
X115098Y179864D01*
X114136Y178902D01*
X113380Y177771D01*
X112860Y176514D01*
X112594Y175180D01*
Y173820D01*
X112860Y172486D01*
X113380Y171229D01*
X114136Y170098D01*
X115098Y169136D01*
X116229Y168380D01*
X117486Y167860D01*
X118820Y167595D01*
X120180D01*
X121514Y167860D01*
X122771Y168380D01*
X123902Y169136D01*
X124864Y170098D01*
X125620Y171229D01*
X126140Y172486D01*
X126406Y173820D01*
Y175180D01*
X126140Y176514D01*
X125620Y177771D01*
X124864Y178902D01*
X123902Y179864D01*
X122771Y180620D01*
X121514Y181140D01*
X120180Y181405D01*
D02*
G37*
G36*
X99900Y170800D02*
X98500D01*
Y167500D01*
X101800D01*
Y168900D01*
X99900Y170800D01*
D02*
G37*
G36*
X97500D02*
X96100D01*
X94200Y168900D01*
Y167500D01*
X97500D01*
Y170800D01*
D02*
G37*
G36*
X310374Y171158D02*
X303059D01*
Y163842D01*
X310374D01*
Y171158D01*
D02*
G37*
G36*
X271765D02*
X270802D01*
X269872Y170908D01*
X269038Y170427D01*
X268357Y169746D01*
X267875Y168912D01*
X267626Y167982D01*
Y167018D01*
X267875Y166088D01*
X268357Y165254D01*
X269038Y164573D01*
X269872Y164092D01*
X270802Y163842D01*
X271765D01*
X272695Y164092D01*
X273529Y164573D01*
X274210Y165254D01*
X274692Y166088D01*
X274941Y167018D01*
Y167982D01*
X274692Y168912D01*
X274210Y169746D01*
X273529Y170427D01*
X272695Y170908D01*
X271765Y171158D01*
D02*
G37*
G36*
X193874Y170658D02*
X186559D01*
Y163342D01*
X193874D01*
Y170658D01*
D02*
G37*
G36*
X155265D02*
X154302D01*
X153372Y170408D01*
X152538Y169927D01*
X151857Y169246D01*
X151375Y168412D01*
X151126Y167482D01*
Y166518D01*
X151375Y165588D01*
X151857Y164754D01*
X152538Y164073D01*
X153372Y163592D01*
X154302Y163342D01*
X155265D01*
X156195Y163592D01*
X157029Y164073D01*
X157710Y164754D01*
X158192Y165588D01*
X158441Y166518D01*
Y167482D01*
X158192Y168412D01*
X157710Y169246D01*
X157029Y169927D01*
X156195Y170408D01*
X155265Y170658D01*
D02*
G37*
G36*
X101800Y166500D02*
X98500D01*
Y163200D01*
X99900D01*
X101800Y165100D01*
Y166500D01*
D02*
G37*
G36*
X97500D02*
X94200D01*
Y165100D01*
X96100Y163200D01*
X97500D01*
Y166500D01*
D02*
G37*
G36*
X121300Y151600D02*
X117700D01*
X115900Y149800D01*
Y146200D01*
X117700Y144400D01*
X121300D01*
X123100Y146200D01*
Y149800D01*
X121300Y151600D01*
D02*
G37*
G36*
X280400Y145800D02*
X279000D01*
Y142500D01*
X282300D01*
Y143900D01*
X280400Y145800D01*
D02*
G37*
G36*
X278000D02*
X276600D01*
X274700Y143900D01*
Y142500D01*
X278000D01*
Y145800D01*
D02*
G37*
G36*
X311300Y141600D02*
X310000D01*
Y138500D01*
X313100D01*
Y139800D01*
X311300Y141600D01*
D02*
G37*
G36*
X131300D02*
X130000D01*
Y138500D01*
X133100D01*
Y139800D01*
X131300Y141600D01*
D02*
G37*
G36*
X129000D02*
X127700D01*
X125900Y139800D01*
Y138500D01*
X129000D01*
Y141600D01*
D02*
G37*
G36*
X309000D02*
X307700D01*
X305900Y139800D01*
Y138500D01*
X309000D01*
Y141600D01*
D02*
G37*
G36*
X282300Y141500D02*
X279000D01*
Y138200D01*
X280400D01*
X282300Y140100D01*
Y141500D01*
D02*
G37*
G36*
X278000D02*
X274700D01*
Y140100D01*
X276600Y138200D01*
X278000D01*
Y141500D01*
D02*
G37*
G36*
X270400Y145800D02*
X266600D01*
X264700Y143900D01*
Y140100D01*
X266600Y138200D01*
X270400D01*
X272300Y140100D01*
Y143900D01*
X270400Y145800D01*
D02*
G37*
G36*
X313100Y137500D02*
X310000D01*
Y134400D01*
X311300D01*
X313100Y136200D01*
Y137500D01*
D02*
G37*
G36*
X309000D02*
X305900D01*
Y136200D01*
X307700Y134400D01*
X309000D01*
Y137500D01*
D02*
G37*
G36*
X133100D02*
X130000D01*
Y134400D01*
X131300D01*
X133100Y136200D01*
Y137500D01*
D02*
G37*
G36*
X129000D02*
X125900D01*
Y136200D01*
X127700Y134400D01*
X129000D01*
Y137500D01*
D02*
G37*
G36*
X191051Y127730D02*
X190201D01*
X189379Y127510D01*
X188643Y127085D01*
X188041Y126483D01*
X187616Y125747D01*
X187396Y124925D01*
Y124075D01*
X187616Y123253D01*
X188041Y122517D01*
X188643Y121915D01*
X189379Y121490D01*
X190201Y121270D01*
X191051D01*
X191873Y121490D01*
X192609Y121915D01*
X193211Y122517D01*
X193636Y123253D01*
X193856Y124075D01*
Y124925D01*
X193636Y125747D01*
X193211Y126483D01*
X192609Y127085D01*
X191873Y127510D01*
X191051Y127730D01*
D02*
G37*
G36*
X162604D02*
X156144D01*
Y121270D01*
X162604D01*
Y127730D01*
D02*
G37*
G36*
X283551Y127230D02*
X282701D01*
X281879Y127010D01*
X281142Y126585D01*
X280541Y125983D01*
X280116Y125247D01*
X279896Y124425D01*
Y123575D01*
X280116Y122753D01*
X280541Y122017D01*
X281142Y121415D01*
X281879Y120990D01*
X282701Y120770D01*
X283551D01*
X284373Y120990D01*
X285109Y121415D01*
X285711Y122017D01*
X286136Y122753D01*
X286356Y123575D01*
Y124425D01*
X286136Y125247D01*
X285711Y125983D01*
X285109Y126585D01*
X284373Y127010D01*
X283551Y127230D01*
D02*
G37*
G36*
X255104D02*
X248644D01*
Y120770D01*
X255104D01*
Y127230D01*
D02*
G37*
G36*
X215500Y118500D02*
X214750D01*
Y115750D01*
X217500D01*
Y116500D01*
X215500Y118500D01*
D02*
G37*
G36*
X212250D02*
X211500D01*
X209500Y116500D01*
Y115750D01*
X212250D01*
Y118500D01*
D02*
G37*
G36*
X108971Y201236D02*
X107029D01*
X105124Y200857D01*
X103330Y200114D01*
X101716Y199035D01*
X100343Y197662D01*
X99264Y196048D01*
X98521Y194254D01*
X98142Y192349D01*
Y190407D01*
X98521Y188502D01*
X99264Y186708D01*
X100343Y185094D01*
X101716Y183721D01*
X103330Y182642D01*
X105124Y181898D01*
X105706Y181783D01*
Y170406D01*
X104200Y168900D01*
Y165100D01*
X105706Y163594D01*
Y98797D01*
X105880Y97919D01*
X106378Y97175D01*
X115028Y88525D01*
X115461Y88236D01*
X116249Y87448D01*
X116440Y86733D01*
X116873Y85984D01*
X117484Y85373D01*
X118233Y84940D01*
X119068Y84716D01*
X119932D01*
X120767Y84940D01*
X121516Y85373D01*
X122127Y85984D01*
X122560Y86733D01*
X122784Y87568D01*
Y88432D01*
X122560Y89267D01*
X122127Y90016D01*
X121516Y90627D01*
X121284Y90761D01*
Y122755D01*
X121746Y122947D01*
X126847Y117847D01*
X127376Y117493D01*
X128000Y117369D01*
X128000Y117369D01*
X156967D01*
X157174Y116869D01*
X156789Y116483D01*
X156364Y115747D01*
X156144Y114925D01*
Y114075D01*
X156364Y113253D01*
X156789Y112517D01*
X157391Y111915D01*
X158127Y111490D01*
X158949Y111270D01*
X159799D01*
X160621Y111490D01*
X161357Y111915D01*
X161959Y112517D01*
X162384Y113253D01*
X162604Y114075D01*
Y114925D01*
X162384Y115747D01*
X161959Y116483D01*
X161574Y116869D01*
X161781Y117369D01*
X185450D01*
X187501Y115318D01*
X187396Y114925D01*
Y114075D01*
X187616Y113253D01*
X188041Y112517D01*
X188643Y111915D01*
X189379Y111490D01*
X190201Y111270D01*
X191051D01*
X191873Y111490D01*
X192609Y111915D01*
X193211Y112517D01*
X193636Y113253D01*
X193856Y114075D01*
Y114925D01*
X193636Y115747D01*
X193211Y116483D01*
X192609Y117085D01*
X191873Y117510D01*
X191051Y117730D01*
X190201D01*
X189808Y117625D01*
X187279Y120153D01*
X186750Y120507D01*
X186126Y120631D01*
X128676D01*
X123100Y126207D01*
Y129800D01*
X121300Y131600D01*
X117700D01*
X115900Y129800D01*
Y126200D01*
X117700Y124400D01*
X117716D01*
Y92979D01*
X117254Y92788D01*
X110294Y99747D01*
Y163594D01*
X111800Y165100D01*
Y168900D01*
X110294Y170406D01*
Y181783D01*
X110875Y181898D01*
X112670Y182642D01*
X114284Y183721D01*
X115657Y185094D01*
X116736Y186708D01*
X117479Y188502D01*
X117858Y190407D01*
Y192349D01*
X117479Y194254D01*
X116736Y196048D01*
X115657Y197662D01*
X114284Y199035D01*
X112670Y200114D01*
X110875Y200857D01*
X108971Y201236D01*
D02*
G37*
G36*
X252299Y117230D02*
X251449D01*
X250627Y117010D01*
X249891Y116585D01*
X249289Y115983D01*
X248864Y115247D01*
X248644Y114425D01*
Y113575D01*
X248864Y112753D01*
X249289Y112017D01*
X249891Y111415D01*
X250627Y110990D01*
X251449Y110770D01*
X252299D01*
X253121Y110990D01*
X253857Y111415D01*
X254459Y112017D01*
X254884Y112753D01*
X255104Y113575D01*
Y114425D01*
X254884Y115247D01*
X254459Y115983D01*
X253857Y116585D01*
X253121Y117010D01*
X252299Y117230D01*
D02*
G37*
G36*
X205400Y118300D02*
X201600D01*
X199700Y116400D01*
Y112600D01*
X201600Y110700D01*
X205400D01*
X207300Y112600D01*
Y116400D01*
X205400Y118300D01*
D02*
G37*
G36*
X217500Y113250D02*
X214750D01*
Y110500D01*
X215500D01*
X217500Y112500D01*
Y113250D01*
D02*
G37*
G36*
X212250D02*
X209500D01*
Y112500D01*
X211500Y110500D01*
X212250D01*
Y113250D01*
D02*
G37*
G36*
X150000Y110700D02*
Y109000D01*
X151700D01*
X150000Y110700D01*
D02*
G37*
G36*
X146000D02*
X144300Y109000D01*
X146000D01*
Y110700D01*
D02*
G37*
G36*
X159874Y107710D02*
Y105000D01*
X162584D01*
X162384Y105747D01*
X161959Y106483D01*
X161357Y107085D01*
X160621Y107510D01*
X159874Y107710D01*
D02*
G37*
G36*
X158874D02*
X158127Y107510D01*
X157391Y107085D01*
X156789Y106483D01*
X156364Y105747D01*
X156164Y105000D01*
X158874D01*
Y107710D01*
D02*
G37*
G36*
X252374Y107210D02*
Y104500D01*
X255084D01*
X254884Y105247D01*
X254459Y105983D01*
X253857Y106585D01*
X253121Y107010D01*
X252374Y107210D01*
D02*
G37*
G36*
X251374D02*
X250627Y107010D01*
X249891Y106585D01*
X249289Y105983D01*
X248864Y105247D01*
X248664Y104500D01*
X251374D01*
Y107210D01*
D02*
G37*
G36*
X151700Y105000D02*
X150000D01*
Y103300D01*
X151700Y105000D01*
D02*
G37*
G36*
X146000D02*
X144300D01*
X146000Y103300D01*
Y105000D01*
D02*
G37*
G36*
X162584Y104000D02*
X159874D01*
Y101290D01*
X160621Y101490D01*
X161357Y101915D01*
X161959Y102517D01*
X162384Y103253D01*
X162584Y104000D01*
D02*
G37*
G36*
X158874D02*
X156164D01*
X156364Y103253D01*
X156789Y102517D01*
X157391Y101915D01*
X158127Y101490D01*
X158874Y101290D01*
Y104000D01*
D02*
G37*
G36*
X191051Y107730D02*
X190201D01*
X189379Y107510D01*
X188643Y107085D01*
X188041Y106483D01*
X187616Y105747D01*
X187396Y104925D01*
Y104075D01*
X187616Y103253D01*
X188041Y102517D01*
X188643Y101915D01*
X189379Y101490D01*
X190201Y101270D01*
X191051D01*
X191873Y101490D01*
X192609Y101915D01*
X193211Y102517D01*
X193636Y103253D01*
X193856Y104075D01*
Y104925D01*
X193636Y105747D01*
X193211Y106483D01*
X192609Y107085D01*
X191873Y107510D01*
X191051Y107730D01*
D02*
G37*
G36*
X255084Y103500D02*
X252374D01*
Y100790D01*
X253121Y100990D01*
X253857Y101415D01*
X254459Y102016D01*
X254884Y102753D01*
X255084Y103500D01*
D02*
G37*
G36*
X251374D02*
X248664D01*
X248864Y102753D01*
X249289Y102016D01*
X249891Y101415D01*
X250627Y100990D01*
X251374Y100790D01*
Y103500D01*
D02*
G37*
G36*
X226400Y97800D02*
X225000D01*
Y94500D01*
X228300D01*
Y95900D01*
X226400Y97800D01*
D02*
G37*
G36*
X224000D02*
X222600D01*
X220700Y95900D01*
Y94500D01*
X224000D01*
Y97800D01*
D02*
G37*
G36*
X149900Y100800D02*
X146100D01*
X144200Y98900D01*
Y95100D01*
X146100Y93200D01*
X149900D01*
X151800Y95100D01*
Y98900D01*
X149900Y100800D01*
D02*
G37*
G36*
X191051Y97730D02*
X190201D01*
X189379Y97510D01*
X188643Y97085D01*
X188041Y96483D01*
X187616Y95747D01*
X187396Y94925D01*
Y94075D01*
X187616Y93253D01*
X188041Y92516D01*
X188643Y91915D01*
X189379Y91490D01*
X190201Y91270D01*
X191051D01*
X191873Y91490D01*
X192609Y91915D01*
X193211Y92516D01*
X193636Y93253D01*
X193856Y94075D01*
Y94925D01*
X193636Y95747D01*
X193211Y96483D01*
X192609Y97085D01*
X191873Y97510D01*
X191051Y97730D01*
D02*
G37*
G36*
X283551Y97230D02*
X282701D01*
X281879Y97010D01*
X281142Y96585D01*
X280541Y95983D01*
X280116Y95247D01*
X279896Y94425D01*
Y93575D01*
X280116Y92753D01*
X280541Y92017D01*
X281142Y91415D01*
X281879Y90990D01*
X282701Y90770D01*
X283551D01*
X284373Y90990D01*
X285109Y91415D01*
X285711Y92017D01*
X286136Y92753D01*
X286356Y93575D01*
Y94425D01*
X286136Y95247D01*
X285711Y95983D01*
X285109Y96585D01*
X284373Y97010D01*
X283551Y97230D01*
D02*
G37*
G36*
X228300Y93500D02*
X225000D01*
Y90200D01*
X226400D01*
X228300Y92100D01*
Y93500D01*
D02*
G37*
G36*
X224000D02*
X220700D01*
Y92100D01*
X222600Y90200D01*
X224000D01*
Y93500D01*
D02*
G37*
G36*
X236400Y97800D02*
X232600D01*
X230700Y95900D01*
Y92723D01*
X226261Y88284D01*
X168113D01*
X162545Y93853D01*
X162604Y94075D01*
Y94925D01*
X162384Y95747D01*
X161959Y96483D01*
X161357Y97085D01*
X160621Y97510D01*
X159799Y97730D01*
X158949D01*
X158127Y97510D01*
X157391Y97085D01*
X156789Y96483D01*
X156364Y95747D01*
X156144Y94925D01*
Y94075D01*
X156364Y93253D01*
X156789Y92516D01*
X157391Y91915D01*
X158127Y91490D01*
X158949Y91270D01*
X159799D01*
X160021Y91329D01*
X166112Y85238D01*
X166691Y84851D01*
X167374Y84716D01*
X167374Y84716D01*
X227000D01*
X227683Y84851D01*
X228262Y85238D01*
X233223Y90200D01*
X236400D01*
X238300Y92100D01*
Y95900D01*
X236400Y97800D01*
D02*
G37*
G36*
X149932Y91284D02*
X149068D01*
X148233Y91060D01*
X147484Y90627D01*
X146873Y90016D01*
X146440Y89267D01*
X146216Y88432D01*
Y87568D01*
X146440Y86733D01*
X146873Y85984D01*
X147484Y85373D01*
X148233Y84940D01*
X149068Y84716D01*
X149932D01*
X150767Y84940D01*
X151516Y85373D01*
X152127Y85984D01*
X152560Y86733D01*
X152784Y87568D01*
Y88432D01*
X152560Y89267D01*
X152127Y90016D01*
X151516Y90627D01*
X150767Y91060D01*
X149932Y91284D01*
D02*
G37*
G36*
X139932D02*
X139068D01*
X138233Y91060D01*
X137484Y90627D01*
X136873Y90016D01*
X136440Y89267D01*
X136216Y88432D01*
Y87568D01*
X136440Y86733D01*
X136873Y85984D01*
X137484Y85373D01*
X138233Y84940D01*
X139068Y84716D01*
X139932D01*
X140767Y84940D01*
X141516Y85373D01*
X142127Y85984D01*
X142560Y86733D01*
X142783Y87568D01*
Y88432D01*
X142560Y89267D01*
X142127Y90016D01*
X141516Y90627D01*
X140767Y91060D01*
X139932Y91284D01*
D02*
G37*
G36*
X129932D02*
X129068D01*
X128233Y91060D01*
X127484Y90627D01*
X126873Y90016D01*
X126440Y89267D01*
X126216Y88432D01*
Y87568D01*
X126440Y86733D01*
X126873Y85984D01*
X127484Y85373D01*
X128233Y84940D01*
X129068Y84716D01*
X129932D01*
X130767Y84940D01*
X131516Y85373D01*
X132127Y85984D01*
X132560Y86733D01*
X132783Y87568D01*
Y88432D01*
X132560Y89267D01*
X132127Y90016D01*
X131516Y90627D01*
X130767Y91060D01*
X129932Y91284D01*
D02*
G37*
G36*
X165400Y78800D02*
X161600D01*
X159700Y76900D01*
Y73100D01*
X161600Y71200D01*
X165400D01*
X167300Y73100D01*
Y76900D01*
X165400Y78800D01*
D02*
G37*
G36*
Y68800D02*
X164000D01*
Y65500D01*
X167300D01*
Y66900D01*
X165400Y68800D01*
D02*
G37*
G36*
X163000D02*
X161600D01*
X159700Y66900D01*
Y65500D01*
X163000D01*
Y68800D01*
D02*
G37*
G36*
X167300Y64500D02*
X164000D01*
Y61200D01*
X165400D01*
X167300Y63100D01*
Y64500D01*
D02*
G37*
G36*
X163000D02*
X159700D01*
Y63100D01*
X161600Y61200D01*
X163000D01*
Y64500D01*
D02*
G37*
G36*
X140000Y61265D02*
Y58500D01*
X142765D01*
X142560Y59267D01*
X142127Y60016D01*
X141516Y60627D01*
X140767Y61060D01*
X140000Y61265D01*
D02*
G37*
G36*
X139000D02*
X138233Y61060D01*
X137484Y60627D01*
X136873Y60016D01*
X136440Y59267D01*
X136235Y58500D01*
X139000D01*
Y61265D01*
D02*
G37*
G36*
X142765Y57500D02*
X140000D01*
Y54735D01*
X140767Y54940D01*
X141516Y55373D01*
X142127Y55984D01*
X142560Y56733D01*
X142765Y57500D01*
D02*
G37*
G36*
X139000D02*
X136235D01*
X136440Y56733D01*
X136873Y55984D01*
X137484Y55373D01*
X138233Y54940D01*
X139000Y54735D01*
Y57500D01*
D02*
G37*
G36*
X122784Y61283D02*
X116217D01*
Y54716D01*
X122784D01*
Y61283D01*
D02*
G37*
G36*
X95180Y66405D02*
X93820D01*
X92486Y66140D01*
X91229Y65620D01*
X90098Y64864D01*
X89136Y63902D01*
X88380Y62771D01*
X87860Y61514D01*
X87594Y60180D01*
Y58820D01*
X87860Y57486D01*
X88380Y56229D01*
X89136Y55098D01*
X90098Y54136D01*
X91229Y53380D01*
X92486Y52860D01*
X93820Y52595D01*
X95180D01*
X96514Y52860D01*
X97771Y53380D01*
X98902Y54136D01*
X99864Y55098D01*
X100620Y56229D01*
X101140Y57486D01*
X101406Y58820D01*
Y60180D01*
X101140Y61514D01*
X100620Y62771D01*
X99864Y63902D01*
X98902Y64864D01*
X97771Y65620D01*
X96514Y66140D01*
X95180Y66405D01*
D02*
G37*
%LPD*%
D11*
X87035Y244528D02*
X110658D01*
X87035Y189409D02*
Y244528D01*
Y189409D02*
X110658D01*
Y244528D01*
D13*
X86000Y245000D02*
G03*
X79500Y238500I0J-6500D01*
G01*
Y49500D02*
G03*
X86500Y43000I6750J250D01*
G01*
X335500Y43000D02*
G03*
X341500Y49500I-250J6250D01*
G01*
Y240000D02*
G03*
X334500Y245000I-6000J-1000D01*
G01*
X86000D02*
X334500D01*
X86500Y43000D02*
X335500D01*
X341500Y49500D02*
Y240000D01*
X104000Y167000D02*
Y170000D01*
Y164000D02*
Y167000D01*
X102000D02*
Y170000D01*
Y164000D02*
Y167000D01*
X160500Y71000D02*
X163500D01*
X166500D01*
X160500Y69000D02*
X163500D01*
X166500D01*
X137000Y45500D02*
Y48500D01*
Y51500D01*
X139000Y45500D02*
Y48500D01*
Y51500D01*
X255000D02*
Y54500D01*
Y48500D02*
Y51500D01*
X253000D02*
Y54500D01*
Y48500D02*
Y51500D01*
X230500Y94000D02*
Y97000D01*
Y91000D02*
Y94000D01*
X228500D02*
Y97000D01*
Y91000D02*
Y94000D01*
X274500Y142000D02*
Y145000D01*
Y139000D02*
Y142000D01*
X272500D02*
Y145000D01*
Y139000D02*
Y142000D01*
X200500Y51500D02*
Y54500D01*
Y48500D02*
Y51500D01*
X198500D02*
Y54500D01*
Y48500D02*
Y51500D01*
X145000Y103000D02*
X148000D01*
X151000D01*
X145000Y101000D02*
X148000D01*
X151000D01*
X207500Y111500D02*
Y114500D01*
Y117500D01*
X209500Y111500D02*
Y114500D01*
Y117500D01*
X143347Y281658D02*
X146102D01*
X183898D02*
X186653D01*
X146102Y328902D02*
X183898D01*
X186653Y244650D02*
Y281658D01*
X183898D02*
Y328902D01*
X146102Y281658D02*
Y328902D01*
X143347Y244650D02*
Y281658D01*
X136063Y191500D02*
Y244650D01*
Y191500D02*
X193937D01*
Y244650D01*
X136063D02*
X193937D01*
X213846Y281748D02*
X216602D01*
X254398D02*
X257154D01*
X216602Y328992D02*
X254398D01*
X257154Y244740D02*
Y281748D01*
X254398D02*
Y328992D01*
X216602Y281748D02*
Y328992D01*
X213846Y244740D02*
Y281748D01*
X206563Y191591D02*
Y244740D01*
Y191591D02*
X264437D01*
Y244740D01*
X206563D02*
X264437D01*
X277063Y244240D02*
X334937D01*
Y191091D02*
Y244240D01*
X277063Y191091D02*
X334937D01*
X277063D02*
Y244240D01*
X284347D02*
Y281248D01*
X287102D02*
Y328492D01*
X324898Y281248D02*
Y328492D01*
X327654Y244240D02*
Y281248D01*
X287102Y328492D02*
X324898D01*
Y281248D02*
X327654D01*
X284347D02*
X287102D01*
D14*
X114500Y60008D02*
Y85992D01*
X154500D01*
Y60008D02*
Y85992D01*
X114500Y60008D02*
X154500D01*
X114500Y65008D02*
X119500Y60008D01*
X266402Y62776D02*
Y72224D01*
X241598Y62776D02*
X266402D01*
X241598Y72224D02*
X266402D01*
X241598Y62776D02*
Y72224D01*
X254000Y129000D02*
X281000D01*
Y89000D02*
Y129000D01*
X254000Y89000D02*
X281000D01*
X254000D02*
Y129000D01*
Y124000D02*
X259000Y129000D01*
X276598Y162776D02*
Y172224D01*
X301402D01*
X276598Y162776D02*
X301402D01*
Y172224D01*
X160098Y162276D02*
Y171724D01*
X184902D01*
X160098Y162276D02*
X184902D01*
Y171724D01*
X161500Y124500D02*
X166500Y129500D01*
X161500Y89500D02*
Y129500D01*
Y89500D02*
X188500D01*
Y129500D01*
X161500D02*
X188500D01*
X211402Y62776D02*
Y72224D01*
X186598Y62776D02*
X211402D01*
X186598Y72224D02*
X211402D01*
X186598Y62776D02*
Y72224D01*
X252031Y67500D02*
X255968D01*
X254000Y65531D02*
Y69468D01*
X287032Y167500D02*
X290968D01*
X289000Y165532D02*
Y169468D01*
X170531Y167000D02*
X174469D01*
X172500Y165032D02*
Y168968D01*
X79850Y248465D02*
X122665D01*
X79850Y180354D02*
Y248465D01*
Y180354D02*
X122665D01*
Y248465D01*
X197031Y67500D02*
X200969Y67500D01*
X199000Y69468D02*
X199000Y65531D01*
D15*
X104500Y167000D02*
X106000D01*
X100000D02*
X101500D01*
X163500Y71500D02*
Y73000D01*
Y67000D02*
Y68500D01*
X135000Y48500D02*
X136500D01*
X139500D02*
X141000D01*
X255500Y51500D02*
X257000D01*
X251000D02*
X252500D01*
X231000Y94000D02*
X232500D01*
X226500D02*
X228000D01*
X275000Y142000D02*
X276500D01*
X270500D02*
X272000D01*
X201000Y51500D02*
X202500D01*
X196500D02*
X198000D01*
X148000Y103500D02*
Y105000D01*
Y99000D02*
Y100500D01*
X205500Y114500D02*
X207000D01*
X210000D02*
X211500D01*
X112500Y172000D02*
G03*
X111500Y173000I-1000J0D01*
G01*
X94500D02*
G03*
X93500Y172000I0J-1000D01*
G01*
X111500Y161000D02*
G03*
X112500Y162000I0J1000D01*
G01*
X93500D02*
G03*
X94500Y161000I1000J0D01*
G01*
X158500Y79500D02*
G03*
X157500Y78500I0J-1000D01*
G01*
Y61500D02*
G03*
X158500Y60500I1000J0D01*
G01*
X169500Y78500D02*
G03*
X168500Y79500I-1000J0D01*
G01*
Y60500D02*
G03*
X169500Y61500I0J1000D01*
G01*
X128500Y43500D02*
G03*
X129500Y42500I1000J0D01*
G01*
X146500D02*
G03*
X147500Y43500I0J1000D01*
G01*
X129500Y54500D02*
G03*
X128500Y53500I0J-1000D01*
G01*
X147500D02*
G03*
X146500Y54500I-1000J0D01*
G01*
X263500Y56500D02*
G03*
X262500Y57500I-1000J0D01*
G01*
X245500D02*
G03*
X244500Y56500I0J-1000D01*
G01*
X262500Y45500D02*
G03*
X263500Y46500I0J1000D01*
G01*
X244500D02*
G03*
X245500Y45500I1000J0D01*
G01*
X239000Y99000D02*
G03*
X238000Y100000I-1000J0D01*
G01*
X221000D02*
G03*
X220000Y99000I0J-1000D01*
G01*
X238000Y88000D02*
G03*
X239000Y89000I0J1000D01*
G01*
X220000D02*
G03*
X221000Y88000I1000J0D01*
G01*
X283000Y147000D02*
G03*
X282000Y148000I-1000J0D01*
G01*
X265000D02*
G03*
X264000Y147000I0J-1000D01*
G01*
X282000Y136000D02*
G03*
X283000Y137000I0J1000D01*
G01*
X264000D02*
G03*
X265000Y136000I1000J0D01*
G01*
X209000Y56500D02*
G03*
X208000Y57500I-1000J0D01*
G01*
X191000D02*
G03*
X190000Y56500I0J-1000D01*
G01*
X208000Y45500D02*
G03*
X209000Y46500I0J1000D01*
G01*
X190000D02*
G03*
X191000Y45500I1000J0D01*
G01*
X143000Y111500D02*
G03*
X142000Y110500I0J-1000D01*
G01*
Y93500D02*
G03*
X143000Y92500I1000J0D01*
G01*
X154000Y110500D02*
G03*
X153000Y111500I-1000J0D01*
G01*
Y92500D02*
G03*
X154000Y93500I0J1000D01*
G01*
X199000Y109500D02*
G03*
X200000Y108500I1000J0D01*
G01*
X217000D02*
G03*
X218000Y109500I0J1000D01*
G01*
X200000Y120500D02*
G03*
X199000Y119500I0J-1000D01*
G01*
X218000D02*
G03*
X217000Y120500I-1000J0D01*
G01*
X104000Y167000D02*
X104500D01*
X101500D02*
X102000D01*
X112500Y162000D02*
Y172000D01*
X93500Y162000D02*
Y172000D01*
X94500Y173000D02*
X111500D01*
X94500Y161000D02*
X111500D01*
X163500Y71000D02*
Y71500D01*
Y68500D02*
Y69000D01*
X158500Y79500D02*
X168500D01*
X158500Y60500D02*
X168500D01*
X157500Y61500D02*
Y78500D01*
X169500Y61500D02*
Y78500D01*
X136500Y48500D02*
X137000D01*
X139000D02*
X139500D01*
X128500Y43500D02*
Y53500D01*
X147500Y43500D02*
Y53500D01*
X129500Y42500D02*
X146500D01*
X129500Y54500D02*
X146500D01*
X245500Y57500D02*
X262500D01*
X245500Y45500D02*
X262500D01*
X263500Y46500D02*
Y56500D01*
X244500Y46500D02*
Y56500D01*
X255000Y51500D02*
X255500D01*
X252500D02*
X253000D01*
X230500Y94000D02*
X231000D01*
X228000D02*
X228500D01*
X239000Y89000D02*
Y99000D01*
X220000Y89000D02*
Y99000D01*
X221000Y100000D02*
X238000D01*
X221000Y88000D02*
X238000D01*
X274500Y142000D02*
X275000D01*
X272000D02*
X272500D01*
X283000Y137000D02*
Y147000D01*
X264000Y137000D02*
Y147000D01*
X265000Y148000D02*
X282000D01*
X265000Y136000D02*
X282000D01*
X191000Y57500D02*
X208000D01*
X191000Y45500D02*
X208000D01*
X209000Y46500D02*
Y56500D01*
X190000Y46500D02*
Y56500D01*
X200500Y51500D02*
X201000D01*
X198000D02*
X198500D01*
X142000Y93500D02*
Y110500D01*
X154000Y93500D02*
Y110500D01*
X143000Y111500D02*
X153000D01*
X143000Y92500D02*
X153000D01*
X148000Y103000D02*
Y103500D01*
Y100500D02*
Y101000D01*
X200000Y108500D02*
X217000D01*
X200000Y120500D02*
X217000D01*
X199000Y109500D02*
Y119500D01*
X218000Y109500D02*
Y119500D01*
X207000Y114500D02*
X207500D01*
X209500D02*
X210000D01*
D16*
X137500Y138000D02*
G03*
X137500Y138000I-18000J0D01*
G01*
X337500D02*
G03*
X337500Y138000I-18000J0D01*
G01*
X103600Y151900D02*
X105700Y149800D01*
Y154000D02*
X107800Y151900D01*
X103600D02*
X105700Y154000D01*
X333300Y126200D02*
X335400Y124100D01*
X331200D02*
X333300Y122000D01*
X335400Y124100D01*
D17*
X134700Y138000D02*
G03*
X134700Y138000I-15200J0D01*
G01*
X334700D02*
G03*
X334700Y138000I-15200J0D01*
G01*
D18*
X113516Y54240D02*
Y91760D01*
X155484D01*
Y54240D02*
Y91760D01*
X113516Y54240D02*
X155484D01*
X233232Y62382D02*
Y72618D01*
Y62382D02*
X274768D01*
X233232Y72618D02*
X274768D01*
Y62382D02*
Y72618D01*
X248035Y129984D02*
X286965D01*
Y88016D02*
Y129984D01*
X248035Y88016D02*
X286965D01*
X248035D02*
Y129984D01*
X309768Y162382D02*
Y172618D01*
X268232D02*
X309768D01*
X268232Y162382D02*
X309768D01*
X268232D02*
Y172618D01*
X193268Y161882D02*
Y172118D01*
X151732D02*
X193268D01*
X151732Y161882D02*
X193268D01*
X151732D02*
Y172118D01*
X155535Y88516D02*
Y130484D01*
Y88516D02*
X194465D01*
Y130484D01*
X155535D02*
X194465D01*
X178232Y62382D02*
X178232Y72618D01*
X178232Y62382D02*
X219768D01*
X178232Y72618D02*
X219768D01*
X219768Y62382D02*
X219768Y72618D01*
D34*
X108000Y98797D02*
X116650Y90147D01*
X108000Y98797D02*
Y191378D01*
X116650Y90147D02*
X116794D01*
X118941Y88000D01*
X119500D01*
D35*
X128856Y52644D02*
X133000Y48500D01*
X128856Y52644D02*
Y57356D01*
X143000Y48500D02*
X148856Y54356D01*
Y57356D01*
X149500Y58000D01*
X128856Y57356D02*
X129500Y58000D01*
X133000Y48500D02*
Y48500D01*
X119500Y127500D02*
Y128000D01*
X186126Y119000D02*
X190626Y114500D01*
X128000Y119000D02*
X186126D01*
X119500Y127500D02*
X128000Y119000D01*
X190626Y114500D02*
X190626D01*
X300000Y126000D02*
Y189469D01*
X306000Y195468D01*
D36*
X119500Y88000D02*
Y127500D01*
X319500Y123150D02*
Y128000D01*
X305208Y108858D02*
X319500Y123150D01*
X266732Y108858D02*
X305208D01*
X251874Y94000D02*
X266732Y108858D01*
X227000Y86500D02*
X234500Y94000D01*
X167374Y86500D02*
X227000D01*
X159374Y94500D02*
X167374Y86500D01*
D37*
X98000Y167000D02*
D03*
X108000D02*
D03*
X143000Y48500D02*
D03*
X133000D02*
D03*
X249000Y51500D02*
D03*
X259000D02*
D03*
X224500Y94000D02*
D03*
X234500D02*
D03*
X268500Y142000D02*
D03*
X278500D02*
D03*
X194500Y51500D02*
D03*
X204500D02*
D03*
X213500Y114500D02*
D03*
X203500D02*
D03*
D38*
X163500Y65000D02*
D03*
Y75000D02*
D03*
X148000Y97000D02*
D03*
Y107000D02*
D03*
D39*
X119500Y58000D02*
D03*
D40*
X129500D02*
D03*
X139500D02*
D03*
X149500D02*
D03*
Y88000D02*
D03*
X139500D02*
D03*
X129500D02*
D03*
X119500D02*
D03*
D41*
X271716Y67500D02*
D03*
X271283Y167500D02*
D03*
X154783Y167000D02*
D03*
X216717Y67500D02*
D03*
X181283D02*
D03*
D42*
X236283D02*
D03*
X306717Y167500D02*
D03*
X190217Y167000D02*
D03*
D43*
X119500Y148000D02*
D03*
X129500Y138000D02*
D03*
X119500Y128000D02*
D03*
X319500D02*
D03*
X309500Y138000D02*
D03*
X319500Y148000D02*
D03*
D44*
X251874Y124000D02*
D03*
X159374Y124500D02*
D03*
D45*
X251874Y114000D02*
D03*
Y104000D02*
D03*
Y94000D02*
D03*
X283126D02*
D03*
Y104000D02*
D03*
Y114000D02*
D03*
Y124000D02*
D03*
X190626Y124500D02*
D03*
Y114500D02*
D03*
Y104500D02*
D03*
Y94500D02*
D03*
X159374D02*
D03*
Y104500D02*
D03*
Y114500D02*
D03*
D46*
X145000Y215910D02*
D03*
X185000D02*
D03*
X215500Y216000D02*
D03*
X255500D02*
D03*
X326000Y215500D02*
D03*
X286000D02*
D03*
D47*
X165000Y195878D02*
D03*
X155000D02*
D03*
X235500Y195968D02*
D03*
X225500D02*
D03*
X296000Y195468D02*
D03*
X306000D02*
D03*
D48*
X89693Y201220D02*
D03*
D49*
X108000Y215000D02*
D03*
Y191378D02*
D03*
D50*
X119500Y174500D02*
D03*
X94500Y59500D02*
D03*
X319000Y66000D02*
D03*
D51*
X300000Y126000D02*
D03*
M02*
