G04*
G04 #@! TF.GenerationSoftware,Altium Limited,Altium Designer,21.2.2 (38)*
G04*
G04 Layer_Physical_Order=2*
G04 Layer_Color=16776960*
%FSLAX25Y25*%
%MOIN*%
G70*
G04*
G04 #@! TF.SameCoordinates,E511DB09-7795-4F42-8736-8E558125F004*
G04*
G04*
G04 #@! TF.FilePolarity,Positive*
G04*
G01*
G75*
%ADD13C,0.01000*%
%ADD32C,0.01200*%
%ADD34P,0.06061X8X202.5*%
%ADD35P,0.06061X8X292.5*%
%ADD36R,0.04567X0.04567*%
%ADD37C,0.04567*%
%ADD38C,0.05315*%
%ADD39R,0.05315X0.05315*%
%ADD40P,0.05629X8X22.5*%
%ADD41R,0.04461X0.04461*%
%ADD42C,0.04461*%
%ADD43C,0.12205*%
%ADD44C,0.05906*%
%ADD45C,0.14961*%
%ADD46C,0.17717*%
%ADD47C,0.11811*%
%ADD48C,0.05000*%
G36*
X153500Y99500D02*
X166000D01*
X169369Y96131D01*
Y72869D01*
X166500Y70000D01*
X158500D01*
X142270Y86230D01*
X142560Y86733D01*
X142783Y87568D01*
Y88432D01*
X142560Y89267D01*
X142127Y90016D01*
X142000Y90144D01*
Y99500D01*
X145000Y102500D01*
X150500D01*
X153500Y99500D01*
D02*
G37*
G36*
X274000Y144000D02*
Y128500D01*
X288000Y114500D01*
X288000Y111500D01*
X285000Y108500D01*
X282000Y108500D01*
X256500Y134000D01*
X227000Y134000D01*
X209000Y116000D01*
X209000Y112000D01*
X205000Y108000D01*
X187000D01*
X183500Y111500D01*
Y117500D01*
X187000Y121000D01*
X203500D01*
X230000Y147500D01*
X270500D01*
X274000Y144000D01*
D02*
G37*
%LPC*%
G36*
X149900Y100800D02*
X148500D01*
Y97500D01*
X151800D01*
Y98900D01*
X149900Y100800D01*
D02*
G37*
G36*
X147500D02*
X146100D01*
X144200Y98900D01*
Y97500D01*
X147500D01*
Y100800D01*
D02*
G37*
G36*
X159874Y97710D02*
Y95000D01*
X162584D01*
X162384Y95747D01*
X161959Y96483D01*
X161357Y97085D01*
X160621Y97510D01*
X159874Y97710D01*
D02*
G37*
G36*
X158874D02*
X158127Y97510D01*
X157391Y97085D01*
X156789Y96483D01*
X156364Y95747D01*
X156164Y95000D01*
X158874D01*
Y97710D01*
D02*
G37*
G36*
X151800Y96500D02*
X148500D01*
Y93200D01*
X149900D01*
X151800Y95100D01*
Y96500D01*
D02*
G37*
G36*
X147500D02*
X144200D01*
Y95100D01*
X146100Y93200D01*
X147500D01*
Y96500D01*
D02*
G37*
G36*
X162584Y94000D02*
X159874D01*
Y91290D01*
X160621Y91490D01*
X161357Y91915D01*
X161959Y92516D01*
X162384Y93253D01*
X162584Y94000D01*
D02*
G37*
G36*
X158874D02*
X156164D01*
X156364Y93253D01*
X156789Y92516D01*
X157391Y91915D01*
X158127Y91490D01*
X158874Y91290D01*
Y94000D01*
D02*
G37*
G36*
X150000Y91265D02*
Y88500D01*
X152765D01*
X152560Y89267D01*
X152127Y90016D01*
X151516Y90627D01*
X150767Y91060D01*
X150000Y91265D01*
D02*
G37*
G36*
X149000D02*
X148233Y91060D01*
X147484Y90627D01*
X146873Y90016D01*
X146440Y89267D01*
X146235Y88500D01*
X149000D01*
Y91265D01*
D02*
G37*
G36*
X152765Y87500D02*
X150000D01*
Y84735D01*
X150767Y84940D01*
X151516Y85373D01*
X152127Y85984D01*
X152560Y86733D01*
X152765Y87500D01*
D02*
G37*
G36*
X149000D02*
X146235D01*
X146440Y86733D01*
X146873Y85984D01*
X147484Y85373D01*
X148233Y84940D01*
X149000Y84735D01*
Y87500D01*
D02*
G37*
G36*
X165400Y78800D02*
X164000D01*
Y75500D01*
X167300D01*
Y76900D01*
X165400Y78800D01*
D02*
G37*
G36*
X163000D02*
X161600D01*
X159700Y76900D01*
Y75500D01*
X163000D01*
Y78800D01*
D02*
G37*
G36*
X167300Y74500D02*
X164000D01*
Y71200D01*
X165400D01*
X167300Y73100D01*
Y74500D01*
D02*
G37*
G36*
X163000D02*
X159700D01*
Y73100D01*
X161600Y71200D01*
X163000D01*
Y74500D01*
D02*
G37*
G36*
X270400Y145800D02*
X269000D01*
Y142500D01*
X272300D01*
Y143900D01*
X270400Y145800D01*
D02*
G37*
G36*
X268000D02*
X266600D01*
X264700Y143900D01*
Y142500D01*
X268000D01*
Y145800D01*
D02*
G37*
G36*
X272300Y141500D02*
X269000D01*
Y138200D01*
X270400D01*
X272300Y140100D01*
Y141500D01*
D02*
G37*
G36*
X268000D02*
X264700D01*
Y140100D01*
X266600Y138200D01*
X268000D01*
Y141500D01*
D02*
G37*
G36*
X205400Y118300D02*
X204000D01*
Y115000D01*
X207300D01*
Y116400D01*
X205400Y118300D01*
D02*
G37*
G36*
X191126Y117710D02*
Y115000D01*
X193836D01*
X193636Y115747D01*
X193211Y116483D01*
X192609Y117085D01*
X191873Y117510D01*
X191126Y117710D01*
D02*
G37*
G36*
X190126D02*
X189379Y117510D01*
X188643Y117085D01*
X188041Y116483D01*
X187616Y115747D01*
X187416Y115000D01*
X190126D01*
Y117710D01*
D02*
G37*
G36*
X203000Y118300D02*
X201600D01*
X199700Y116400D01*
Y115000D01*
X203000D01*
Y118300D01*
D02*
G37*
G36*
X283626Y117210D02*
Y114500D01*
X286336D01*
X286136Y115247D01*
X285711Y115983D01*
X285109Y116585D01*
X284373Y117010D01*
X283626Y117210D01*
D02*
G37*
G36*
X282626D02*
X281879Y117010D01*
X281142Y116585D01*
X280541Y115983D01*
X280116Y115247D01*
X279916Y114500D01*
X282626D01*
Y117210D01*
D02*
G37*
G36*
X193836Y114000D02*
X191126D01*
Y111290D01*
X191873Y111490D01*
X192609Y111915D01*
X193211Y112517D01*
X193636Y113253D01*
X193836Y114000D01*
D02*
G37*
G36*
X190126D02*
X187416D01*
X187616Y113253D01*
X188041Y112517D01*
X188643Y111915D01*
X189379Y111490D01*
X190126Y111290D01*
Y114000D01*
D02*
G37*
G36*
X286336Y113500D02*
X283626D01*
Y110790D01*
X284373Y110990D01*
X285109Y111415D01*
X285711Y112017D01*
X286136Y112753D01*
X286336Y113500D01*
D02*
G37*
G36*
X282626D02*
X279916D01*
X280116Y112753D01*
X280541Y112017D01*
X281142Y111415D01*
X281879Y110990D01*
X282626Y110790D01*
Y113500D01*
D02*
G37*
G36*
X207300Y114000D02*
X204000D01*
Y110700D01*
X205400D01*
X207300Y112600D01*
Y114000D01*
D02*
G37*
G36*
X203000D02*
X199700D01*
Y112600D01*
X201600Y110700D01*
X203000D01*
Y114000D01*
D02*
G37*
%LPD*%
D13*
X79473Y51999D02*
G03*
X88000Y43000I9277J251D01*
G01*
X334500D02*
G03*
X341500Y51000I-500J7500D01*
G01*
X341500Y235500D02*
G03*
X332000Y245000I-9500J0D01*
G01*
X88000Y245000D02*
G03*
X79500Y239000I-1250J-7250D01*
G01*
X79500Y51999D02*
X79500Y239000D01*
X88000Y43000D02*
X334500D01*
X341500Y51000D02*
Y235500D01*
X88000Y245000D02*
X332000Y245000D01*
D32*
X190217Y167500D02*
Y189640D01*
Y167000D02*
Y167500D01*
X176000Y67500D02*
X181283D01*
X171000Y72500D02*
X176000Y67500D01*
X155000Y167217D02*
Y195878D01*
X300000Y120874D02*
Y126000D01*
X283126Y104000D02*
X300000Y120874D01*
X271716Y92591D02*
X283126Y104000D01*
X235500Y195968D02*
X263531D01*
X292000Y167500D02*
X306717D01*
X263531Y195968D02*
X292000Y167500D01*
X190217Y167000D02*
X190717Y167500D01*
X271283D01*
X306717D02*
X313500D01*
X319500Y161500D01*
Y148000D02*
Y161500D01*
X196500Y195923D02*
X225455D01*
X165045D02*
X196500D01*
X190217Y189640D02*
X196500Y195923D01*
X119500Y148000D02*
Y157500D01*
X129000Y167000D01*
X154783D01*
X166000Y114500D02*
X171000Y109500D01*
X190217Y138716D02*
Y167000D01*
X166000Y114500D02*
X190217Y138716D01*
X234500Y94000D02*
X251874D01*
X204000Y74500D02*
X211000Y67500D01*
X197500Y104500D02*
X204000Y98000D01*
Y74500D02*
Y98000D01*
X197500Y104500D02*
X217500D01*
X190626D02*
X197500D01*
X227000Y114000D02*
X251874D01*
X217500Y104500D02*
X227000Y114000D01*
X171000Y72500D02*
Y109500D01*
X181283Y67500D02*
X189000D01*
X159374Y114500D02*
X166000D01*
X194500Y51500D02*
Y62000D01*
X189000Y67500D02*
X194500Y62000D01*
X204500Y51500D02*
Y61000D01*
X211000Y67500D02*
X216717D01*
X204500Y61000D02*
X211000Y67500D01*
X216717D02*
X236283D01*
X242000D02*
X249000Y60500D01*
Y51500D02*
Y60500D01*
X236283Y67500D02*
X242000D01*
X259000Y62500D02*
X264000Y67500D01*
X271716D01*
X259000Y51500D02*
Y62500D01*
X271716Y67500D02*
Y92591D01*
D34*
X98000Y167000D02*
D03*
X108000D02*
D03*
X143000Y48500D02*
D03*
X133000D02*
D03*
X249000Y51500D02*
D03*
X259000D02*
D03*
X224500Y94000D02*
D03*
X234500D02*
D03*
X268500Y142000D02*
D03*
X278500D02*
D03*
X194500Y51500D02*
D03*
X204500D02*
D03*
X213500Y114500D02*
D03*
X203500D02*
D03*
D35*
X163500Y65000D02*
D03*
Y75000D02*
D03*
X148000Y97000D02*
D03*
Y107000D02*
D03*
D36*
X119500Y58000D02*
D03*
D37*
X129500D02*
D03*
X139500D02*
D03*
X149500D02*
D03*
Y88000D02*
D03*
X139500D02*
D03*
X129500D02*
D03*
X119500D02*
D03*
D38*
X271716Y67500D02*
D03*
X271283Y167500D02*
D03*
X154783Y167000D02*
D03*
X216717Y67500D02*
D03*
X181283D02*
D03*
D39*
X236283D02*
D03*
X306717Y167500D02*
D03*
X190217Y167000D02*
D03*
D40*
X119500Y148000D02*
D03*
X129500Y138000D02*
D03*
X119500Y128000D02*
D03*
X319500D02*
D03*
X309500Y138000D02*
D03*
X319500Y148000D02*
D03*
D41*
X251874Y124000D02*
D03*
X159374Y124500D02*
D03*
D42*
X251874Y114000D02*
D03*
Y104000D02*
D03*
Y94000D02*
D03*
X283126D02*
D03*
Y104000D02*
D03*
Y114000D02*
D03*
Y124000D02*
D03*
X190626Y124500D02*
D03*
Y114500D02*
D03*
Y104500D02*
D03*
Y94500D02*
D03*
X159374D02*
D03*
Y104500D02*
D03*
Y114500D02*
D03*
D43*
X145000Y215910D02*
D03*
X185000D02*
D03*
X215500Y216000D02*
D03*
X255500D02*
D03*
X326000Y215500D02*
D03*
X286000D02*
D03*
D44*
X165000Y195878D02*
D03*
X155000D02*
D03*
X235500Y195968D02*
D03*
X225500D02*
D03*
X296000Y195468D02*
D03*
X306000D02*
D03*
D45*
X89693Y201220D02*
D03*
D46*
X108000Y215000D02*
D03*
Y191378D02*
D03*
D47*
X119500Y174500D02*
D03*
X94500Y59500D02*
D03*
X319000Y66000D02*
D03*
D48*
X300000Y126000D02*
D03*
M02*
