G04*
G04 #@! TF.GenerationSoftware,Altium Limited,Altium Designer,21.2.2 (38)*
G04*
G04 Layer_Color=32768*
%FSLAX25Y25*%
%MOIN*%
G70*
G04*
G04 #@! TF.SameCoordinates,E511DB09-7795-4F42-8736-8E558125F004*
G04*
G04*
G04 #@! TF.FilePolarity,Positive*
G04*
G01*
G75*
%ADD13C,0.01000*%
%ADD15C,0.00600*%
%ADD49C,0.00500*%
%ADD50C,0.00200*%
D13*
X104000Y167000D02*
Y170000D01*
Y164000D02*
Y167000D01*
X102000D02*
Y170000D01*
Y164000D02*
Y167000D01*
X160500Y71000D02*
X163500D01*
X166500D01*
X160500Y69000D02*
X163500D01*
X166500D01*
X137000Y45500D02*
Y48500D01*
Y51500D01*
X139000Y45500D02*
Y48500D01*
Y51500D01*
X255000D02*
Y54500D01*
Y48500D02*
Y51500D01*
X253000D02*
Y54500D01*
Y48500D02*
Y51500D01*
X230500Y94000D02*
Y97000D01*
Y91000D02*
Y94000D01*
X228500D02*
Y97000D01*
Y91000D02*
Y94000D01*
X274500Y142000D02*
Y145000D01*
Y139000D02*
Y142000D01*
X272500D02*
Y145000D01*
Y139000D02*
Y142000D01*
X200500Y51500D02*
Y54500D01*
Y48500D02*
Y51500D01*
X198500D02*
Y54500D01*
Y48500D02*
Y51500D01*
X145000Y103000D02*
X148000D01*
X151000D01*
X145000Y101000D02*
X148000D01*
X151000D01*
X207500Y111500D02*
Y114500D01*
Y117500D01*
X209500Y111500D02*
Y114500D01*
Y117500D01*
X79473Y51999D02*
G03*
X88000Y43000I9277J251D01*
G01*
X334500D02*
G03*
X341500Y51000I-500J7500D01*
G01*
X341500Y235500D02*
G03*
X332000Y245000I-9500J0D01*
G01*
X88000Y245000D02*
G03*
X79500Y239000I-1250J-7250D01*
G01*
X79500Y51999D02*
X79500Y239000D01*
X88000Y43000D02*
X334500D01*
X341500Y51000D02*
Y235500D01*
X88000Y245000D02*
X332000Y245000D01*
D15*
X112500Y172000D02*
G03*
X111500Y173000I-1000J0D01*
G01*
X94500D02*
G03*
X93500Y172000I0J-1000D01*
G01*
X111500Y161000D02*
G03*
X112500Y162000I0J1000D01*
G01*
X93500D02*
G03*
X94500Y161000I1000J0D01*
G01*
X158500Y79500D02*
G03*
X157500Y78500I0J-1000D01*
G01*
Y61500D02*
G03*
X158500Y60500I1000J0D01*
G01*
X169500Y78500D02*
G03*
X168500Y79500I-1000J0D01*
G01*
Y60500D02*
G03*
X169500Y61500I0J1000D01*
G01*
X128500Y43500D02*
G03*
X129500Y42500I1000J0D01*
G01*
X146500D02*
G03*
X147500Y43500I0J1000D01*
G01*
X129500Y54500D02*
G03*
X128500Y53500I0J-1000D01*
G01*
X147500D02*
G03*
X146500Y54500I-1000J0D01*
G01*
X263500Y56500D02*
G03*
X262500Y57500I-1000J0D01*
G01*
X245500D02*
G03*
X244500Y56500I0J-1000D01*
G01*
X262500Y45500D02*
G03*
X263500Y46500I0J1000D01*
G01*
X244500D02*
G03*
X245500Y45500I1000J0D01*
G01*
X239000Y99000D02*
G03*
X238000Y100000I-1000J0D01*
G01*
X221000D02*
G03*
X220000Y99000I0J-1000D01*
G01*
X238000Y88000D02*
G03*
X239000Y89000I0J1000D01*
G01*
X220000D02*
G03*
X221000Y88000I1000J0D01*
G01*
X283000Y147000D02*
G03*
X282000Y148000I-1000J0D01*
G01*
X265000D02*
G03*
X264000Y147000I0J-1000D01*
G01*
X282000Y136000D02*
G03*
X283000Y137000I0J1000D01*
G01*
X264000D02*
G03*
X265000Y136000I1000J0D01*
G01*
X209000Y56500D02*
G03*
X208000Y57500I-1000J0D01*
G01*
X191000D02*
G03*
X190000Y56500I0J-1000D01*
G01*
X208000Y45500D02*
G03*
X209000Y46500I0J1000D01*
G01*
X190000D02*
G03*
X191000Y45500I1000J0D01*
G01*
X143000Y111500D02*
G03*
X142000Y110500I0J-1000D01*
G01*
Y93500D02*
G03*
X143000Y92500I1000J0D01*
G01*
X154000Y110500D02*
G03*
X153000Y111500I-1000J0D01*
G01*
Y92500D02*
G03*
X154000Y93500I0J1000D01*
G01*
X199000Y109500D02*
G03*
X200000Y108500I1000J0D01*
G01*
X217000D02*
G03*
X218000Y109500I0J1000D01*
G01*
X200000Y120500D02*
G03*
X199000Y119500I0J-1000D01*
G01*
X218000D02*
G03*
X217000Y120500I-1000J0D01*
G01*
X104000Y167000D02*
X104500D01*
X101500D02*
X102000D01*
X112500Y162000D02*
Y172000D01*
X93500Y162000D02*
Y172000D01*
X94500Y173000D02*
X111500D01*
X94500Y161000D02*
X111500D01*
X163500Y71000D02*
Y71500D01*
Y68500D02*
Y69000D01*
X158500Y79500D02*
X168500D01*
X158500Y60500D02*
X168500D01*
X157500Y61500D02*
Y78500D01*
X169500Y61500D02*
Y78500D01*
X136500Y48500D02*
X137000D01*
X139000D02*
X139500D01*
X128500Y43500D02*
Y53500D01*
X147500Y43500D02*
Y53500D01*
X129500Y42500D02*
X146500D01*
X129500Y54500D02*
X146500D01*
X245500Y57500D02*
X262500D01*
X245500Y45500D02*
X262500D01*
X263500Y46500D02*
Y56500D01*
X244500Y46500D02*
Y56500D01*
X255000Y51500D02*
X255500D01*
X252500D02*
X253000D01*
X230500Y94000D02*
X231000D01*
X228000D02*
X228500D01*
X239000Y89000D02*
Y99000D01*
X220000Y89000D02*
Y99000D01*
X221000Y100000D02*
X238000D01*
X221000Y88000D02*
X238000D01*
X274500Y142000D02*
X275000D01*
X272000D02*
X272500D01*
X283000Y137000D02*
Y147000D01*
X264000Y137000D02*
Y147000D01*
X265000Y148000D02*
X282000D01*
X265000Y136000D02*
X282000D01*
X191000Y57500D02*
X208000D01*
X191000Y45500D02*
X208000D01*
X209000Y46500D02*
Y56500D01*
X190000Y46500D02*
Y56500D01*
X200500Y51500D02*
X201000D01*
X198000D02*
X198500D01*
X142000Y93500D02*
Y110500D01*
X154000Y93500D02*
Y110500D01*
X143000Y111500D02*
X153000D01*
X143000Y92500D02*
X153000D01*
X148000Y103000D02*
Y103500D01*
Y100500D02*
Y101000D01*
X200000Y108500D02*
X217000D01*
X200000Y120500D02*
X217000D01*
X199000Y109500D02*
Y119500D01*
X218000Y109500D02*
Y119500D01*
X207000Y114500D02*
X207500D01*
X209500D02*
X210000D01*
D49*
X137500Y138000D02*
G03*
X137500Y138000I-18000J0D01*
G01*
X337500D02*
G03*
X337500Y138000I-18000J0D01*
G01*
X103600Y151900D02*
X105700Y149800D01*
Y154000D02*
X107800Y151900D01*
X103600D02*
X105700Y154000D01*
X333300Y126200D02*
X335400Y124100D01*
X331200D02*
X333300Y122000D01*
X335400Y124100D01*
D50*
X134700Y138000D02*
G03*
X134700Y138000I-15200J0D01*
G01*
X334700D02*
G03*
X334700Y138000I-15200J0D01*
G01*
M02*
