M48
;Layer_Color=9474304
;FILE_FORMAT=2:4
INCH,LZ
;TYPE=PLATED
T1F00S00C0.0280
T2F00S00C0.0289
T3F00S00C0.0299
T4F00S00C0.0320
T5F00S00C0.0335
T6F00S00C0.0382
T7F00S00C0.0811
T8F00S00C0.1033
T9F00S00C0.1181
T10F00S00C0.1240
%
T01
X03Y0126
T02
X015937Y00945
Y01045
Y01145
Y01245
X019063
Y01145
Y01045
Y00945
X025187Y0094
Y0104
Y0114
Y0124
X028313
Y0114
Y0104
Y0094
T03
X01195Y0058
X01295
X01395
X01495
Y0088
X01395
X01295
X01195
T04
X0133Y00485
X0143
X0148Y0097
Y0107
X01295Y0138
X01195Y0148
Y0128
X01635Y0075
Y0065
X01945Y00515
X02045
X0249
X0259
X02345Y0094
X02245
X02135Y01145
X02035
X02685Y0142
X02785
X03095Y0138
X03195Y0128
Y0148
X0108Y0167
X0098
T05
X018128Y00675
X021672
X023628
X027172
X027128Y01675
X030672
X019022Y0167
X015478
T06
X0165Y019588
X02255Y019597
X02355
X0296Y019547
X0306
X0155Y019588
T07
X0326Y02155
X0286
X02555Y0216
X02155
X0185Y021591
X0145
T08
X008969Y020122
T09
X00945Y00595
X0319Y0066
X01195Y01745
T10
X0108Y019138
Y0215
M30
