M48
;Layer_Color=9474304
;FILE_FORMAT=2:5
INCH,LZ
;TYPE=PLATED
T1F00S00C0.02800
T2F00S00C0.02886
T3F00S00C0.02992
T4F00S00C0.03200
T5F00S00C0.03346
T6F00S00C0.03819
T7F00S00C0.08110
T8F00S00C0.10335
T9F00S00C0.11811
T10F00S00C0.12402
%
T01
X03Y0126
T02
X0159374Y00945
Y01045
Y01145
Y01245
X0190626
Y01145
Y01045
Y00945
X0251874Y0094
Y0104
Y0114
Y0124
X0283126
Y0114
Y0104
Y0094
T03
X01195Y0058
X01295
X01395
X01495
Y0088
X01395
X01295
X01195
T04
X0133Y00485
X0143
X0148Y0097
Y0107
X01295Y0138
X01195Y0148
Y0128
X01635Y0075
Y0065
X01945Y00515
X02045
X0249
X0259
X02345Y0094
X02245
X02135Y01145
X02035
X02685Y0142
X02785
X03095Y0138
X03195Y0128
Y0148
X0108Y0167
X0098
T05
X0181283Y00675
X0216717
X0236283
X0271716
X0271283Y01675
X0306717
X0190217Y0167
X0154783
T06
X0165Y0195878
X02255Y0195968
X02355
X0296Y0195468
X0306
X0155Y0195878
T07
X0326Y02155
X0286
X02555Y0216
X02155
X0185Y021591
X0145
T08
X0089693Y020122
T09
X00945Y00595
X0319Y0066
X01195Y01745
T10
X0108Y0191378
Y0215
M30
